<?xml version="1.0" encoding="UTF-8" standalone="no"?><!DOCTYPE svg PUBLIC "-//W3C//DTD SVG 1.1//EN" "http://www.w3.org/Graphics/SVG/1.1/DTD/svg11.dtd"><svg width="100%" height="100%" viewBox="0 0 169 44" version="1.1" xmlns="http://www.w3.org/2000/svg" xmlns:xlink="http://www.w3.org/1999/xlink" xml:space="preserve" xmlns:serif="http://www.serif.com/" style="fill-rule:evenodd;clip-rule:evenodd;stroke-linejoin:round;stroke-miterlimit:2;"><g id="RUSSIAN-TOPICS" serif:id="RUSSIAN TOPICS"><g id="red"><g id="red1" serif:id="red"><g><g id="background"><rect x="-1.027" y="-1.306" width="170.97" height="45.298" style="fill:#aa3f39;"/></g></g></g></g><path id="zwiebel_turm" d="M141.501,12.69l-3.719,0c-0.349,-0.183 -0.609,-0.415 -0.764,-0.666l0.512,-0.485l0.61,0.579c0.049,0.046 0.138,0.046 0.187,-0l0.611,-0.579l0.61,0.579c0.049,0.046 0.138,0.046 0.187,-0l0.611,-0.579l0.61,0.579c0.024,0.023 0.058,0.036 0.093,0.036c0.036,-0 0.07,-0.013 0.094,-0.036l0.61,-0.579l0.512,0.485c-0.154,0.251 -0.415,0.483 -0.764,0.666m-0.13,2.948l0.059,-2.267l-3.501,0.461c-0.145,2.7 2.207,2.484 3.442,-0.461l0,2.267Zm0.211,-2.711c0.009,0 0.048,0.035 0.048,0.104c-0,0.068 -0.039,0.103 -0.048,0.103l-3.88,-0c-0.01,-0 -0.049,-0.035 -0.049,-0.103c0,-0.069 0.039,-0.104 0.049,-0.104l3.88,0Zm-4.707,-1.614c0.063,-0.301 0.252,-0.496 0.471,-0.721l0.022,-0.023c0.079,-0.081 0.174,-0.16 0.282,-0.242l0.49,0.464c0.049,0.047 0.138,0.047 0.187,0l0.611,-0.578l0.61,0.578c0.049,0.047 0.138,0.047 0.187,0l0.611,-0.578l0.61,0.578c0.024,0.023 0.058,0.036 0.093,0.036c0.036,0 0.07,-0.013 0.094,-0.036l0.49,-0.464c0.108,0.082 0.203,0.161 0.282,0.242l0.022,0.023c0.219,0.225 0.408,0.42 0.472,0.721c0.033,0.158 0.021,0.319 -0.031,0.476l-0.531,-0.503c-0.049,-0.046 -0.138,-0.046 -0.187,0l-0.611,0.579l-0.61,-0.579c-0.024,-0.023 -0.058,-0.036 -0.093,-0.036c-0.036,0 -0.07,0.013 -0.094,0.036l-0.61,0.579l-0.611,-0.579c-0.049,-0.046 -0.138,-0.046 -0.187,0l-0.61,0.579l-0.611,-0.579c-0.024,-0.023 -0.058,-0.036 -0.093,-0.036c-0.036,0 -0.069,0.013 -0.094,0.036l-0.53,0.503c-0.053,-0.157 -0.065,-0.318 -0.031,-0.476m2.233,-2.265l0.44,0.417c0.024,0.023 0.058,0.036 0.094,0.036c0.035,0 0.069,-0.013 0.093,-0.036l0.44,-0.417c0.344,0.476 0.79,0.796 1.179,1.074c0.026,0.019 0.051,0.037 0.076,0.055l-0.381,0.361l-0.61,-0.578c-0.024,-0.023 -0.058,-0.036 -0.093,-0.036c-0.036,-0 -0.07,0.013 -0.094,0.036l-0.61,0.578l-0.611,-0.578c-0.049,-0.047 -0.138,-0.046 -0.187,-0l-0.61,0.578l-0.381,-0.361c0.025,-0.018 0.05,-0.036 0.076,-0.055c0.389,-0.278 0.835,-0.598 1.179,-1.074m0.47,-1.036c0.042,0.004 0.085,0.004 0.127,-0c0.075,0.317 0.191,0.589 0.332,0.825l-0.395,0.375l-0.396,-0.375c0.142,-0.236 0.257,-0.508 0.332,-0.825m-0.279,-0.547c-0,-0.172 0.154,-0.312 0.343,-0.312c0.189,-0 0.342,0.14 0.342,0.312c0,0.103 -0.055,0.2 -0.148,0.258c-0.003,0.002 -0.007,0.004 -0.013,0.007c-0.012,0.007 -0.025,0.014 -0.037,0.019c-0.008,0.003 -0.015,0.006 -0.023,0.008c-0.001,0.001 -0.002,0.001 -0.004,0.002c-0.075,0.025 -0.16,0.025 -0.235,-0c-0.002,-0.001 -0.003,-0.001 -0.004,-0.002c-0.004,-0.001 -0.008,-0.002 -0.011,-0.003l-0.01,-0.004c-0.007,-0.003 -0.015,-0.007 -0.021,-0.01c-0.111,-0.055 -0.179,-0.16 -0.179,-0.275m3.365,3.803c-0.077,-0.364 -0.298,-0.592 -0.532,-0.833l-0.022,-0.023c-0.158,-0.162 -0.37,-0.314 -0.596,-0.476c-0.59,-0.423 -1.322,-0.946 -1.561,-2.001c0.003,-0.001 0.005,-0.003 0.008,-0.004c0.007,-0.004 0.014,-0.008 0.022,-0.013c0.163,-0.103 0.261,-0.272 0.261,-0.453c0,-0.302 -0.27,-0.549 -0.602,-0.549c-0.333,0 -0.603,0.247 -0.603,0.549c-0,0.193 0.11,0.371 0.291,0.47c-0.239,1.054 -0.971,1.578 -1.561,2.001c-0.225,0.162 -0.438,0.314 -0.596,0.476l-0.021,0.023c-0.234,0.241 -0.456,0.469 -0.533,0.833c-0.117,0.555 0.21,1.126 0.858,1.527c-0.052,0.061 -0.084,0.143 -0.084,0.236c0,0.172 0.111,0.31 0.259,0.335l0,2.39c0,0.066 0.058,0.119 0.13,0.119l3.719,-0c0.072,-0 0.13,-0.053 0.13,-0.119l-0,-2.39c0.148,-0.025 0.259,-0.163 0.259,-0.335c-0,-0.093 -0.032,-0.175 -0.084,-0.236c0.649,-0.401 0.975,-0.972 0.858,-1.527" style="fill:#fac7c4;fill-rule:nonzero;"/><g id="RUSSIAN-TOPICS1" serif:id="RUSSIAN TOPICS"><g transform="matrix(0.850281,0,0,1,10.2108,0)"><text x="101.56px" y="33.652px" style="font-family:'Avenir-Book', 'Avenir';font-size:24px;fill:#fac7c4;">TOPICS</text></g><g transform="matrix(0.842983,0,0,1,-0.144292,0)"><text x="-0.919px" y="33.652px" style="font-family:'Avenir-Book', 'Avenir';font-size:24px;fill:#fac7c4;">RUSSIAN</text></g></g></g></svg>